{"title":"Eagles - Hell Freezes Over (2005) DVDRip XviD AC3 peaSoup","uid":9177749,"size":2087268966,"categoryP":"video","categoryS":"music_videos","magnet":"?xt=urn:btih:3189f06ee8bc3fa0721536d4de168b1a28a2b7bf&amp;dn=Eagles+-+Hell+Freezes+Over+%282005%29+DVDRip+XviD+AC3+peaSoup&amp;tr=udp%3A%2F%2Ftracker.openbittorrent.com%3A80&amp;tr=udp%3A%2F%2Fopen.demonii.com%3A1337&amp;tr=udp%3A%2F%2Ftracker.coppersurfer.tk%3A6969&amp;tr=udp%3A%2F%2Fexodus.desync.com%3A6969","seeders":34,"leechers":4,"uploader":"peaSoup","files":-1,"time":1384182454,"description":" &lt;a href=&quot;http://imageshack.com/a/img855/8296/i4cd.jpg&quot; rel=&quot;nofollow&quot; target=&quot;_NEW&quot;&gt;http://imageshack.com/a/img855/8296/i4cd.jpg&lt;/a&gt;                                        &lt;a href=&quot; http://imageshack.com/a/img69/4703/1uxm.jpg&quot; rel=&quot;nofollow&quot; target=&quot;_NEW&quot;&gt; http://imageshack.com/a/img69/4703/1uxm.jpg&lt;/a&gt;                                         &lt;a href=&quot; http://imageshack.com/a/img834/6927/x6ey.jpg&quot; rel=&quot;nofollow&quot; target=&quot;_NEW&quot;&gt; http://imageshack.com/a/img834/6927/x6ey.jpg&lt;/a&gt;                                        &lt;a href=&quot; http://imageshack.com/a/img842/9282/4c33.jpg&quot; rel=&quot;nofollow&quot; target=&quot;_NEW&quot;&gt; http://imageshack.com/a/img842/9282/4c33.jpg&lt;/a&gt;                                        &lt;a href=&quot; http://imageshack.com/a/img440/1993/f36g.jpg&quot; rel=&quot;nofollow&quot; target=&quot;_NEW&quot;&gt; http://imageshack.com/a/img440/1993/f36g.jpg&lt;/a&gt;                                         Format                                   : AVI\nFormat/Info                              : Audio Video Interleave\nFormat profile                           : OpenDML\nFile size                                : 1.94 GiB\nDuration                                 : 1h 38mn\nOverall bit rate                         : 2 821 Kbps\nMovie name                               : Eagles - Hell Freezes Over (2005) DVDRip XviD AC3 peaSoup\nWriting application                      : Lavf53.21.0\nOriginal source form/Name                : EAGLES_NTSC\n\nVideo\nID                                       : 0\nFormat                                   : MPEG-4 Visual\nFormat profile                           : Advanced Simple@L5\nFormat settings, BVOP                    : 2\nFormat settings, QPel                    : No\nFormat settings, GMC                     : No warppoints\nFormat settings, Matrix                  : Default (H.263)\nMuxing mode                              : Packed bitstream\nCodec ID                                 : XVID\nCodec ID/Hint                            : XviD\nDuration                                 : 1h 38mn\nBit rate                                 : 2 361 Kbps\nWidth                                    : 720 pixels\nHeight                                   : 548 pixels\nDisplay aspect ratio                     : 4:3\nFrame rate                               : 29.970 fps\nColor space                              : YUV\nChroma subsampling                       : 4:2:0\nBit depth                                : 8 bits\nScan type                                : Progressive\nCompression mode                         : Lossy\nBits/(Pixel*Frame)                       : 0.200\nStream size                              : 1.63 GiB (84%)\nWriting library                          : XviD 1.2.1 (UTC 2008-12-04)\n\nAudio\nID                                       : 1\nFormat                                   : AC-3\nFormat/Info                              : Audio Coding 3\nMode extension                           : CM (complete main)\nFormat settings, Endianness              : Big\nCodec ID                                 : 2000\nDuration                                 : 1h 38mn\nBit rate mode                            : Constant\nBit rate                                 : 448 Kbps\nChannel(s)                               : 6 channels\nChannel positions                        : Front: L C R, Side: L R, LFE\nSampling rate                            : 48.0 KHz\nBit depth                                : 16 bits\nCompression mode                         : Lossy\nStream size                              : 316 MiB (16%)\nAlignment                                : Aligned on interleaves\nInterleave, duration                     : 32 ms (0.96 video frame)\n\n","torrent":{"xt":"urn:btih:3189f06ee8bc3fa0721536d4de168b1a28a2b7bf","amp;dn":"Eagles+-+Hell+Freezes+Over+%282005%29+DVDRip+XviD+AC3+peaSoup","amp;tr":["udp%3A%2F%2Ftracker.openbittorrent.com%3A80","udp%3A%2F%2Fopen.demonii.com%3A1337","udp%3A%2F%2Ftracker.coppersurfer.tk%3A6969","udp%3A%2F%2Fexodus.desync.com%3A6969"],"infoHash":"3189f06ee8bc3fa0721536d4de168b1a28a2b7bf","infoHashBuffer":{"type":"Buffer","data":[49,137,240,110,232,188,63,160,114,21,54,212,222,22,139,26,40,162,183,191]},"announce":[],"urlList":[]}}